<svg width="241" height="31" viewBox="0 0 241 31" fill="none" xmlns="http://www.w3.org/2000/svg">
<path d="M36.742 6.503V9.803H34.369V12.021H36.742V17.892C36.6511 19.0906 37.0371 20.2765 37.816 21.192C38.23 21.5819 38.7235 21.8775 39.2626 22.0586C39.8017 22.2397 40.3736 22.3019 40.939 22.241C41.7928 22.2332 42.6354 22.0458 43.412 21.691L42.663 19.491C42.1807 19.7586 41.6404 19.9044 41.089 19.916C39.889 19.916 39.315 19.241 39.315 17.892V12.021H42.937V9.8H39.337V6.228L36.742 6.503ZM45.536 9.776V22.092H48.109V15.421C48.0775 14.9605 48.1461 14.4986 48.3099 14.0671C48.4737 13.6356 48.7289 13.2446 49.058 12.921C49.7068 12.3347 50.5569 12.0216 51.431 12.047C52.2206 12.035 52.9895 12.3 53.604 12.796L54.778 10.548C53.9298 9.82807 52.8417 9.4536 51.73 9.499C51.0085 9.44176 50.2856 9.58979 49.6447 9.926C49.0038 10.2622 48.471 10.7729 48.108 11.399L47.933 9.775L45.536 9.776ZM65.996 11.725C65.5834 11.034 64.9864 10.4716 64.272 10.101C63.5084 9.70377 62.6598 9.49788 61.799 9.501C60.9606 9.47066 60.1244 9.60708 59.3391 9.90233C58.5537 10.1976 57.8348 10.6458 57.224 11.221C56.6107 11.834 56.1334 12.5694 55.8233 13.3792C55.5131 14.189 55.3771 15.0551 55.424 15.921C55.3685 16.8006 55.4976 17.682 55.8031 18.5087C56.1086 19.3354 56.5838 20.089 57.198 20.721C57.7996 21.299 58.513 21.748 59.2944 22.0403C60.0758 22.3327 60.9087 22.4622 61.742 22.421C62.5937 22.4152 63.4322 22.2097 64.19 21.821C64.958 21.4522 65.5884 20.8483 65.99 20.097L66.115 22.097H68.563V9.775H66.063L65.996 11.725ZM61.996 11.85C62.6727 11.8388 63.3418 11.9933 63.945 12.3C64.4759 12.5675 64.925 12.973 65.245 13.474C65.5381 13.973 65.757 14.512 65.895 15.074C66.045 15.6474 66.045 16.2496 65.895 16.823C65.7614 17.3782 65.5421 17.9093 65.245 18.397C64.9321 18.904 64.4812 19.3112 63.945 19.571C63.3418 19.8777 62.6727 20.0322 61.996 20.021C61.4697 20.0379 60.9456 19.9468 60.4558 19.7535C59.966 19.5602 59.5209 19.2687 59.148 18.897C58.7583 18.5094 58.4546 18.0441 58.2567 17.5313C58.0587 17.0186 57.9709 16.4699 57.999 15.921C57.9739 15.3766 58.0632 14.833 58.2611 14.3252C58.459 13.8175 58.7612 13.3568 59.148 12.973C59.5209 12.6013 59.966 12.3098 60.4558 12.1165C60.9456 11.9232 61.4697 11.8321 61.996 11.849V11.85ZM81.232 9.75L79.383 14.221L77.434 19.442L75.261 13.721L73.612 9.75H70.764L76.01 22.141H78.833L84.055 9.75H81.232ZM97.67 16.895C97.895 14.472 97.445 12.623 96.296 11.349C95.6744 10.7065 94.9225 10.2045 94.0908 9.8768C93.2591 9.54908 92.3668 9.40321 91.474 9.449C90.6172 9.40562 89.7607 9.54159 88.9594 9.84821C88.1582 10.1548 87.4297 10.6253 86.8207 11.2296C86.2117 11.8339 85.7355 12.5587 85.4227 13.3576C85.1099 14.1565 84.9673 15.0118 85.004 15.869C84.96 16.7417 85.0972 17.614 85.407 18.431C85.7168 19.248 86.1925 19.9919 86.804 20.616C87.4496 21.2247 88.2121 21.6958 89.0454 22.0007C89.8786 22.3057 90.7651 22.4381 91.651 22.39C92.6514 22.3939 93.6434 22.2072 94.574 21.84C95.4747 21.5191 96.2863 20.9889 96.942 20.293L95.272 18.669C94.8298 19.1112 94.291 19.4446 93.698 19.643C93.0576 19.8781 92.3802 19.9966 91.698 19.993C90.7035 20.038 89.7239 19.7381 88.925 19.144C88.5689 18.8797 88.2733 18.5424 88.058 18.1548C87.8426 17.7671 87.7124 17.338 87.676 16.896L97.67 16.895ZM87.727 14.721C87.8748 13.8468 88.3477 13.0609 89.051 12.521C89.7801 12.0022 90.6564 11.731 91.551 11.747C92.4631 11.7122 93.3604 11.9848 94.099 12.521C94.428 12.7887 94.6962 13.1233 94.8858 13.5026C95.0755 13.8819 95.1822 14.2972 95.199 14.721H87.727ZM100.393 4.629V22.092H102.966V4.629H100.393ZM113.234 19.868C112.719 19.8847 112.206 19.7933 111.728 19.5997C111.251 19.4061 110.819 19.1146 110.461 18.744C110.095 18.378 109.808 17.9404 109.619 17.4586C109.43 16.9769 109.342 16.4613 109.361 15.944C109.333 14.9096 109.709 13.905 110.41 13.144C110.774 12.7669 111.214 12.4717 111.701 12.2781C112.188 12.0844 112.711 11.9968 113.234 12.021C113.755 12.0034 114.273 12.0918 114.759 12.2809C115.244 12.47 115.686 12.7558 116.057 13.121C116.414 13.4973 116.692 13.9405 116.876 14.4251C117.061 14.9096 117.147 15.4258 117.131 15.944C117.149 16.4645 117.06 16.9832 116.871 17.4685C116.682 17.9538 116.396 18.3956 116.031 18.767C115.665 19.133 115.227 19.4195 114.746 19.6088C114.264 19.7981 113.748 19.886 113.231 19.867L113.234 19.868ZM109.134 27.812V20.292C109.57 20.9977 110.217 21.5483 110.983 21.866C111.773 22.2041 112.624 22.3743 113.483 22.366C114.321 22.4007 115.157 22.2583 115.936 21.9482C116.715 21.638 117.42 21.1671 118.005 20.566C119.159 19.3098 119.77 17.6486 119.705 15.944C119.73 15.0999 119.589 14.2591 119.289 13.4697C118.989 12.6803 118.536 11.958 117.956 11.344C117.376 10.7489 116.68 10.2799 115.91 9.96619C115.141 9.65251 114.315 9.50096 113.484 9.521C112.615 9.52042 111.758 9.72605 110.984 10.121C110.23 10.4919 109.592 11.0639 109.142 11.774L108.992 9.774H106.564V27.813L109.134 27.812ZM122.553 4.629V22.092H125.126V4.629H122.553ZM138.542 11.721C138.129 11.03 137.532 10.4676 136.818 10.097C136.054 9.69977 135.206 9.49388 134.345 9.497C133.507 9.46746 132.671 9.60464 131.886 9.90058C131.101 10.1965 130.382 10.6453 129.772 11.221C129.159 11.834 128.681 12.5694 128.371 13.3792C128.061 14.189 127.925 15.0551 127.972 15.921C127.916 16.8006 128.046 17.682 128.351 18.5087C128.657 19.3354 129.132 20.089 129.746 20.721C130.348 21.2995 131.062 21.7488 131.844 22.0411C132.626 22.3335 133.46 22.4628 134.294 22.421C135.146 22.4152 135.984 22.2097 136.742 21.821C137.51 21.4522 138.14 20.8483 138.542 20.097L138.667 22.097H141.115V9.775H138.615L138.542 11.721ZM134.542 11.846C135.219 11.8348 135.888 11.9893 136.491 12.296C137.022 12.5635 137.471 12.969 137.791 13.47C138.084 13.969 138.303 14.508 138.441 15.07C138.592 15.6439 138.592 16.2469 138.442 16.821C138.308 17.3762 138.089 17.9073 137.792 18.395C137.479 18.902 137.028 19.3092 136.492 19.569C135.889 19.8757 135.22 20.0302 134.543 20.019C134.017 20.0359 133.493 19.9448 133.003 19.7515C132.513 19.5582 132.068 19.2667 131.695 18.895C131.305 18.508 131.001 18.0431 130.802 17.5307C130.603 17.0183 130.515 16.4699 130.542 15.921C130.517 15.3857 130.603 14.851 130.794 14.3503C130.985 13.8497 131.277 13.3939 131.653 13.0116C132.028 12.6293 132.479 12.3287 132.976 12.1287C133.473 11.9286 134.006 11.8334 134.542 11.849V11.846ZM156.553 22.092V15.471C156.641 13.8891 156.102 12.3364 155.053 11.149C154.568 10.6319 153.978 10.224 153.323 9.95262C152.667 9.68123 151.962 9.55249 151.253 9.575C150.459 9.57898 149.676 9.75794 148.959 10.0991C148.242 10.4403 147.61 10.9354 147.106 11.549L146.956 9.749H144.612V22.092H147.185V15.646C147.163 14.6795 147.512 13.7412 148.159 13.023C148.47 12.6774 148.852 12.4027 149.279 12.2175C149.706 12.0322 150.167 11.9406 150.632 11.949C151.086 11.9246 151.54 11.999 151.963 12.1672C152.386 12.3354 152.767 12.5932 153.08 12.923C153.684 13.6404 153.996 14.559 153.954 15.496V22.096L156.553 22.092Z" fill="black"/>
<path d="M166.521 11.921C167.55 11.9021 168.546 12.2877 169.294 12.995C169.674 13.3779 169.97 13.8359 170.163 14.3397C170.356 14.8436 170.442 15.3821 170.415 15.921C170.437 16.4591 170.348 16.9959 170.155 17.4985C169.961 18.0012 169.668 18.459 169.291 18.844C168.929 19.2075 168.496 19.4927 168.019 19.6819C167.542 19.8711 167.031 19.9603 166.518 19.944C165.996 19.9584 165.476 19.8662 164.991 19.6729C164.505 19.4797 164.064 19.1895 163.695 18.82C163.319 18.4396 163.025 17.9858 162.831 17.4869C162.638 16.988 162.549 16.4546 162.571 15.92C162.555 15.395 162.646 14.8722 162.839 14.3833C163.031 13.8945 163.32 13.4496 163.689 13.0758C164.058 12.7019 164.499 12.4067 164.985 12.208C165.471 12.0094 165.993 11.9114 166.518 11.92L166.521 11.921ZM159.851 4.62601V22.092H162.274L162.424 20.143C162.866 20.8657 163.499 21.4531 164.252 21.841C165.005 22.229 165.851 22.4026 166.696 22.343C167.545 22.3864 168.394 22.2491 169.186 21.9402C169.978 21.6312 170.695 21.1577 171.291 20.5509C171.886 19.944 172.346 19.2177 172.64 18.42C172.934 17.6222 173.055 16.7711 172.996 15.923C173.044 15.0581 172.913 14.1925 172.612 13.3802C172.312 12.5678 171.847 11.8261 171.247 11.201C170.647 10.6343 169.94 10.1922 169.167 9.90042C168.395 9.60862 167.572 9.47287 166.747 9.50101C165.879 9.51187 165.025 9.71689 164.247 10.101C163.483 10.4245 162.843 10.9855 162.423 11.701V4.63101L159.851 4.62601ZM181.311 9.52601C180.46 9.49501 179.611 9.64113 178.82 9.95511C178.028 10.2691 177.31 10.7441 176.711 11.35C176.128 11.9619 175.673 12.6839 175.373 13.4738C175.073 14.2637 174.933 15.1055 174.962 15.95C174.931 16.7948 175.069 17.6373 175.37 18.4274C175.67 19.2176 176.126 19.9394 176.711 20.55C177.31 21.1542 178.028 21.6265 178.821 21.9365C179.613 22.2464 180.461 22.3873 181.311 22.35C182.164 22.3848 183.015 22.2429 183.81 21.9331C184.606 21.6234 185.328 21.1525 185.933 20.55C186.521 19.9409 186.981 19.2199 187.286 18.4298C187.591 17.6396 187.734 16.7964 187.707 15.95C187.73 15.106 187.583 14.2661 187.273 13.4804C186.964 12.6948 186.499 11.9797 185.907 11.378C185.31 10.7677 184.593 10.2881 183.801 9.9698C183.01 9.65148 182.16 9.50137 181.307 9.52901L181.311 9.52601ZM181.311 11.899C181.825 11.8873 182.335 11.9887 182.806 12.1961C183.277 12.4034 183.696 12.7117 184.034 13.099C184.736 13.8807 185.119 14.8968 185.108 15.947C185.145 16.9971 184.768 18.0198 184.059 18.795C183.714 19.1772 183.289 19.4784 182.814 19.677C182.339 19.8756 181.825 19.9668 181.311 19.944C180.796 19.9693 180.282 19.8792 179.807 19.6804C179.332 19.4816 178.907 19.1791 178.563 18.795C177.861 18.0169 177.493 16.9939 177.539 15.947C177.506 14.8946 177.872 13.8686 178.563 13.074C178.907 12.6883 179.331 12.3832 179.806 12.1803C180.281 11.9773 180.795 11.8806 181.311 11.899ZM196.001 9.52601C195.15 9.49501 194.301 9.64113 193.51 9.95511C192.718 10.2691 192 10.7441 191.401 11.35C190.818 11.9619 190.363 12.6839 190.063 13.4738C189.763 14.2637 189.623 15.1055 189.652 15.95C189.621 16.7948 189.759 17.6373 190.06 18.4274C190.36 19.2176 190.816 19.9394 191.401 20.55C192 21.1542 192.718 21.6265 193.511 21.9365C194.303 22.2464 195.151 22.3873 196.001 22.35C196.854 22.3848 197.705 22.2428 198.5 21.933C199.296 21.6233 200.018 21.1524 200.623 20.55C201.211 19.9409 201.671 19.2199 201.976 18.4298C202.281 17.6396 202.424 16.7964 202.397 15.95C202.42 15.106 202.273 14.2661 201.963 13.4804C201.654 12.6948 201.189 11.9797 200.597 11.378C200 10.7677 199.283 10.2881 198.491 9.9698C197.7 9.65148 196.85 9.50137 195.997 9.52901L196.001 9.52601ZM196.001 11.899C196.515 11.8873 197.025 11.9887 197.496 12.1961C197.967 12.4034 198.386 12.7117 198.724 13.099C199.426 13.8807 199.809 14.8968 199.798 15.947C199.835 16.9971 199.458 18.0198 198.749 18.795C198.404 19.1772 197.979 19.4784 197.504 19.677C197.029 19.8756 196.515 19.9668 196.001 19.944C195.486 19.9693 194.972 19.8792 194.497 19.6804C194.022 19.4816 193.597 19.1791 193.253 18.795C192.551 18.0169 192.183 16.9939 192.229 15.947C192.196 14.8946 192.562 13.8686 193.253 13.074C193.597 12.6883 194.021 12.3832 194.496 12.1803C194.971 11.9773 195.485 11.8806 196.001 11.899ZM205.119 4.62901V22.092H207.719V16.392L212.99 22.092H216.138V21.921L210.092 15.576L215.415 9.92101V9.77101H212.292L207.715 14.821V4.62901H205.119ZM229.127 16.895C229.352 14.472 228.902 12.623 227.753 11.349C226.861 10.3748 225.693 9.69556 224.405 9.40187C223.117 9.10817 221.77 9.21394 220.543 9.70508C219.317 10.1962 218.269 11.0494 217.54 12.151C216.811 13.2525 216.434 14.5502 216.461 15.871C216.417 16.7437 216.554 17.616 216.864 18.433C217.174 19.25 217.649 19.9939 218.261 20.618C218.907 21.2267 219.669 21.6979 220.502 22.0028C221.336 22.3078 222.222 22.4402 223.108 22.392C224.108 22.3959 225.1 22.2092 226.031 21.842C226.934 21.5213 227.747 20.9903 228.404 20.293L226.73 18.669C226.288 19.1112 225.749 19.4446 225.156 19.643C224.516 19.8781 223.838 19.9966 223.156 19.993C222.161 20.038 221.182 19.7381 220.383 19.144C220.027 18.8797 219.731 18.5424 219.516 18.1548C219.301 17.7671 219.17 17.338 219.134 16.896L229.127 16.895ZM219.183 14.721C219.331 13.8468 219.804 13.0609 220.507 12.521C221.236 12.0023 222.112 11.731 223.007 11.747C223.919 11.7122 224.816 11.9848 225.555 12.521C225.884 12.7887 226.152 13.1233 226.342 13.5026C226.531 13.8819 226.638 14.2973 226.655 14.721H219.183ZM231.749 9.77501V22.092H234.322V15.421C234.291 14.9605 234.359 14.4987 234.523 14.0671C234.687 13.6356 234.942 13.2446 235.271 12.921C235.898 12.38 236.693 12.0723 237.521 12.0499C238.349 12.0275 239.159 12.2917 239.815 12.798L240.989 10.55C240.141 9.83008 239.053 9.45561 237.941 9.50101C237.22 9.44377 236.497 9.5918 235.856 9.92801C235.215 10.2642 234.682 10.7749 234.319 11.401L234.144 9.77701L231.749 9.77501Z" fill="#EF436A"/>
<path fill-rule="evenodd" clip-rule="evenodd" d="M26.733 25.439C27.8762 24.0513 28.7661 22.4733 29.362 20.777C17.262 15.701 0.382012 4.038 12.994 0.944C11.8975 1.09579 10.821 1.36776 9.78401 1.755C-1.83099 6.907 13.385 20.4 26.733 25.439Z" fill="black"/>
<path fill-rule="evenodd" clip-rule="evenodd" d="M29.792 19.21C30.0426 18.1143 30.169 16.9939 30.169 15.87C30.1683 12.9861 29.341 10.1629 27.785 7.73483C26.2291 5.30674 24.0098 3.37552 21.39 2.16998C20.106 1.66098 14.272 0.869985 17.142 6.98199C18.969 10.869 25.128 15.792 29.792 19.21Z" fill="#EF436A"/>
<path fill-rule="evenodd" clip-rule="evenodd" d="M15.085 30.948C18.9875 30.948 22.7374 29.4325 25.544 26.721C10.744 24.589 -0.867992 15.813 1.26501 9.83099C0.428658 11.7343 -0.00215404 13.791 8.09823e-06 15.87C0.00265869 19.8693 1.59304 23.704 4.42165 26.5313C7.25027 29.3586 11.0857 30.9472 15.085 30.948Z" fill="#FBAA1D"/>
<path fill-rule="evenodd" clip-rule="evenodd" d="M12.309 0L15.858 0.189L12.875 2.189L13.609 0.774L12.309 0Z" fill="black"/>
</svg>
